<svg xmlns="http://www.w3.org/2000/svg" xmlns:xlink="http://www.w3.org/1999/xlink" version="1.1" x="0px" y="0px" viewBox="0 0 100 100" enable-background="new 0 0 100 100" xml:space="preserve"><polygon fill="#000000" points="82.663,80.018 79.835,77.189 82.597,74.428 80.476,72.307 77.714,75.068 76.3,73.654 79.062,70.893   76.94,68.771 74.179,71.533 52.122,49.476 78.614,22.984 78.614,28.672 81.614,28.672 81.614,20.861 81.614,17.861 78.614,17.861   70.806,17.861 70.806,20.861 76.495,20.861 50.001,47.354 23.508,20.861 29.197,20.861 29.197,17.861 21.387,17.861 18.387,17.861   18.387,20.861 18.387,28.672 21.387,28.672 21.387,22.982 47.88,49.476 25.82,71.533 23.059,68.771 20.938,70.893 23.699,73.654   22.285,75.068 19.523,72.307 17.402,74.428 20.164,77.189 17.336,80.018 19.457,82.139 22.285,79.311 25.047,82.072 27.168,79.951   24.406,77.189 25.82,75.775 28.582,78.537 30.703,76.416 27.941,73.654 50.001,51.598 72.058,73.654 69.296,76.416 71.417,78.537   74.179,75.775 75.593,77.189 72.831,79.951 74.952,82.072 77.714,79.311 80.542,82.139 "></polygon></svg>